<svg width="25" height="25" viewBox="0 0 25 25" fill="none" xmlns="http://www.w3.org/2000/svg">
<path d="M23.9762 8.05607C23.92 6.78085 23.7138 5.90416 23.4184 5.14449C23.1136 4.33811 22.6448 3.61617 22.0305 3.01602C21.4304 2.40652 20.7037 1.93292 19.9066 1.63294C19.1426 1.33753 18.2704 1.13131 16.9952 1.07509C15.7105 1.0141 15.3026 1 12.0442 1C8.78575 1 8.3779 1.0141 7.09793 1.07033C5.82271 1.12655 4.94602 1.33295 4.18653 1.62817C3.37998 1.93292 2.65804 2.40176 2.05789 3.01602C1.44839 3.61617 0.974973 4.34288 0.674805 5.13991C0.379399 5.90416 0.173182 6.77609 0.116958 8.0513C0.055972 9.33604 0.0418701 9.74389 0.0418701 13.0023C0.0418701 16.2608 0.055972 16.6686 0.112196 17.9486C0.168421 19.2238 0.37482 20.1005 0.670227 20.8602C0.974973 21.6666 1.44839 22.3885 2.05789 22.9887C2.65804 23.5982 3.38474 24.0718 4.18177 24.3717C4.94602 24.6672 5.81795 24.8734 7.09335 24.9296C8.37314 24.986 8.78117 24.9999 12.0396 24.9999C15.2981 24.9999 15.7059 24.986 16.9859 24.9296C18.2611 24.8734 19.1378 24.6672 19.8973 24.3717C21.5102 23.7482 22.7854 22.4729 23.409 20.8602C23.7042 20.096 23.9106 19.2238 23.9669 17.9486C24.0231 16.6686 24.0372 16.2608 24.0372 13.0023C24.0372 9.74389 24.0324 9.33604 23.9762 8.05607ZM21.815 17.8549C21.7633 19.027 21.5664 19.6599 21.4023 20.0819C20.9991 21.1274 20.1692 21.9572 19.1237 22.3605C18.7017 22.5246 18.0642 22.7215 16.8967 22.7729C15.6308 22.8293 15.2512 22.8433 12.049 22.8433C8.84674 22.8433 8.46233 22.8293 7.20103 22.7729C6.02893 22.7215 5.396 22.5246 4.97404 22.3605C4.45374 22.1682 3.98013 21.8634 3.59572 21.4649C3.19721 21.0758 2.89246 20.6069 2.70016 20.0866C2.53607 19.6647 2.33919 19.027 2.28773 17.8596C2.23132 16.5937 2.2174 16.2139 2.2174 13.0117C2.2174 9.80946 2.23132 9.42505 2.28773 8.16394C2.33919 6.99183 2.53607 6.3589 2.70016 5.93694C2.89246 5.41645 3.19721 4.94303 3.60048 4.55843C3.98947 4.15992 4.45831 3.85517 4.9788 3.66306C5.40076 3.49896 6.03846 3.30209 7.2058 3.25044C8.47167 3.19422 8.8515 3.18011 12.0535 3.18011C15.2605 3.18011 15.6402 3.19422 16.9015 3.25044C18.0736 3.30209 18.7065 3.49896 19.1285 3.66306C19.6488 3.85517 20.1224 4.15992 20.5068 4.55843C20.9053 4.94761 21.21 5.41645 21.4023 5.93694C21.5664 6.3589 21.7633 6.99641 21.815 8.16394C21.8712 9.42981 21.8853 9.80946 21.8853 13.0117C21.8853 16.2139 21.8712 16.589 21.815 17.8549Z" fill="#14142B"/>
<path d="M12.0443 6.83716C8.64062 6.83716 5.87903 9.59857 5.87903 13.0024C5.87903 16.4063 8.64062 19.1677 12.0443 19.1677C15.4482 19.1677 18.2096 16.4063 18.2096 13.0024C18.2096 9.59857 15.4482 6.83716 12.0443 6.83716ZM12.0443 17.0017C9.83616 17.0017 8.04504 15.2108 8.04504 13.0024C8.04504 10.7941 9.83616 9.00317 12.0443 9.00317C14.2526 9.00317 16.0436 10.7941 16.0436 13.0024C16.0436 15.2108 14.2526 17.0017 12.0443 17.0017Z" fill="#14142B"/>
<path d="M19.8941 6.59324C19.8941 7.38808 19.2496 8.03255 18.4546 8.03255C17.6597 8.03255 17.0153 7.38808 17.0153 6.59324C17.0153 5.79822 17.6597 5.15393 18.4546 5.15393C19.2496 5.15393 19.8941 5.79822 19.8941 6.59324Z" fill="#14142B"/>
</svg>
