<svg width="24" height="24" viewBox="0 0 24 24" fill="none" xmlns="http://www.w3.org/2000/svg">
<g clip-path="url(#clip0_717_21133)">
<path d="M23.9943 24V23.999H24.0003V15.197C24.0003 10.891 23.0733 7.57397 18.0393 7.57397C15.6193 7.57397 13.9953 8.90198 13.3323 10.161H13.2623V7.97597H8.48926V23.999H13.4593V16.065C13.4593 13.976 13.8553 11.956 16.4423 11.956C18.9913 11.956 19.0293 14.34 19.0293 16.199V24H23.9943Z" fill="#14142B"/>
<path d="M0.39679 7.97693H5.37279V23.9999H0.39679V7.97693Z" fill="#14142B"/>
<path d="M2.882 0C1.291 0 0 1.291 0 2.882C0 4.473 1.291 5.791 2.882 5.791C4.473 5.791 5.764 4.473 5.764 2.882C5.763 1.291 4.472 0 2.882 0V0Z" fill="#14142B"/>
</g>
<defs>
<clipPath id="clip0_717_21133">
<rect width="24" height="24" fill="white"/>
</clipPath>
</defs>
</svg>
